<?xml version="1.0" encoding="UTF-8"?><svg id="Layer_1" xmlns="http://www.w3.org/2000/svg" viewBox="0 0 350 350"><path d="M128.94,331.44c-2.5-1.46-5-2.92-7.5-4.38v-9.87c2.5.73,5,1.46,7.5,2.19v12.06Z" fill="#fbf7bc" stroke="#58595b" stroke-miterlimit="10"/><path d="M127.69,313.44c-2.17-.5-4.33-1-6.5-1.5V26.44c1.08-.23,2.49-.41,4.12-.32.89.05,1.69.17,2.38.32-.62,41.47-.36,74.91,0,98,.37,23.69.93,41.51,1.13,73.5.16,25.28.02,45.95-.13,59.5-.97,10.91-.83,19.56-.5,25.5.32,5.88,1.1,14.28,0,26-.18,1.91-.37,3.47-.5,4.5Z" fill="#fbf7bc" stroke-width="0"/><path d="M260.19,317.44c-3.1.84-11.16,2.56-22,4.5-2.31.22-5.78.56-10,1-12.88,1.36-20.71,2.45-32.5,4-32.68,4.28-43.77,5.2-47.5,5.5-6.15.49-11.23.33-14.65.48-.23.01-.46-.04-.68-.14-1.17-.52-2.33-.72-3.5-1.26l-.42-.69v-9.65c0-.9.48-1.7,1.22-2.15.45-.27.87-.33,1.04-.35,16.5-1.8,19.49-1.75,19.49-1.75.88.01.38-.01,15.5-1.5,7.3-.72,17.93-1.75,31.5-3,13.15-1.25,26.83-2.89,41-5,9.27-1.38,18.27-2.89,27-4.5v3.5c-.17,1.83-.33,3.67-.5,5.5-.05.54-.26,2.09-1.5,3.5-1.16,1.32-2.67,1.78-3.5,2Z" fill="#f5cc89" stroke="#58595b" stroke-miterlimit="10"/><path d="M85.19,303.94c.5.83,1,1.67,1.5,2.5,11.5,6.83,23,13.67,34.5,20.5V26.44c-12.67,1.17-25.33,2.33-38,3.5.67,91.33,1.33,182.67,2,274Z" fill="#fbf7bc" stroke="#58595b" stroke-miterlimit="10"/><path d="M266.19,120.44c-46.17,1.33-92.33,2.67-138.5,4V31.44c-.05-.35-.32-2.29,1-4,1.64-2.13,4.27-2.01,4.5-2,18.19-2.88,39.75-5.03,64-5,23.83.03,45.05,2.16,63,5,.9.44,2.21,1.21,3.5,2.5.71.71,1.7,1.86,2.5,3.5v89Z" fill="#f5cc89" stroke="#58595b" stroke-miterlimit="10"/><path d="M265.69,298.94c-2.67.33-5.33.67-8,1-15.17,2.17-30.33,4.33-45.5,6.5l-84,7.5c.17-59.67.33-119.33.5-179,46-1.33,92-2.67,138-4-.33,56-.67,112-1,168Z" fill="#f5cc89" stroke="#58595b" stroke-miterlimit="10"/><path d="M242.19,120.44l-56.25,2.25c-.17-34-.33-68-.5-102,9.25-.49,19.47-.59,30.5,0,9.15.49,17.67,1.38,25.5,2.5.25,32.42.5,64.83.75,97.25Z" fill="#f7ce92" stroke-width="0"/><path d="M240.84,302.44c-20.47,2.25-40.93,4.5-61.4,6.75-.67-58.5-1.33-117-2-175.5,3.42-.14,8.04-.32,13.5-.5,5.25-.17,10.73-.32,19.5-.5,7.94-.16,18.41-.35,31-.5-.2,56.75-.4,113.5-.6,170.25Z" fill="#f7ce92" stroke-width="0"/><path d="M239.13,320.85c-19.67,2.38-39.33,4.76-59,7.14-.9.11-1.7-.6-1.7-1.5v-11.79c9-.99,18-1.99,27-3,11.67-1.31,23.34-2.65,35-4v11.69c0,.75-.56,1.38-1.3,1.47Z" fill="#f7ce92" stroke-width="0"/><path d="M121.19,26.44l10.64-4,39.86-5,34.25-.25c10.42.92,20.83,1.83,31.25,2.75,11.38,1.08,19.82,2.69,23,4,1.99.82,3.5,2,3.5,2,1.73,1.36,2.83,2.88,3.5,4v88.92l-1,.83V31.44c-.44-.9-1.21-2.21-2.5-3.5-.71-.71-1.86-1.7-3.5-2.5-6.99-1.2-15.98-2.52-26.5-3.5-12.26-1.15-21.56-1.36-28-1.5-7.02-.15-18.34-.37-33,.5-10.59.63-24.01,1.89-39.5,4.5-1.83.67-3.67,1.33-5.5,2-.02-.83-.3-1.27-.5-1.5-.98-1.12-3.45-1.05-6,.5Z" fill="#fbf7bc" stroke="#6d6e71" stroke-miterlimit="10"/><path d="M127.69,124.44c46.17-1.33,92.33-2.67,138.5-4l-.02,4-137.98,3.75c-.91.15-3.76.51-6-1.25-.4-.31-.73-.65-1-1v-2.5c2.17.33,4.33.67,6.5,1Z" fill="#717072" stroke="#58595b" stroke-miterlimit="10"/><path d="M247.19,124.94c-20.83.5-41.67,1-62.5,1.5v-3.5c20.83-.67,41.67-1.33,62.5-2v4Z" fill="#fffefe" stroke="#58595b" stroke-miterlimit="10"/><path d="M128.44,131.06c46.17-1.33,92.33-2.67,138.5-4l-.02,4-137.98,3.75c-.91.15-3.76.51-6-1.25-.4-.31-.73-.65-1-1v-2.5c2.17.33,4.33.67,6.5,1Z" fill="#717072" stroke="#58595b" stroke-miterlimit="10"/><path d="M247.94,131.56c-20.83.5-41.67,1-62.5,1.5v-3.5c20.83-.67,41.67-1.33,62.5-2v4Z" fill="#fffefe" stroke="#58595b" stroke-miterlimit="10"/><path d="M265.19,124.94c-45.83,1.17-91.67,2.33-137.5,3.5v2.5c45.83-1.33,91.67-2.67,137.5-4v-2Z" fill="#414042" stroke="#58595b" stroke-miterlimit="10"/><path d="M128.19,313.94c8.07-.55,19.02-1.36,32-2.5,24.73-2.17,21.24-2.45,44.5-4.5,0,0,25.98-2.29,42.5-5,.83-.14,4.69-1.14,10-2,3.34-.54,6.01-.84,7.5-1v4c-18.77,2.91-38.11,5.59-58,8-25.97,3.14-51.16,5.61-75.5,7.5-.67.33-1.33.67-2,1-1.75-.3-4.28-1.04-6.5-3-.37-.33-.7-.66-1-1v-2.5c2.17.33,4.33.67,6.5,1Z" fill="#717072" stroke="#58595b" stroke-miterlimit="10"/><path d="M240.69,306.44c-20.83,2.5-41.67,5-62.5,7.5v-4c20.67-2.17,41.33-4.33,62-6.5.17,1,.33,2,.5,3Z" fill="#fffefe" stroke="#58595b" stroke-miterlimit="10"/><rect x="136.69" y="85.94" width="12.5" height="7.5" rx="3.75" ry="3.75" fill="#717072" stroke="#58595b" stroke-miterlimit="10"/><path d="M176.83,91.28c-11.05.22-22.1.44-33.15.67-1.75.18-3.06-1.2-2.99-2.41.07-1.13,1.37-2.29,2.99-2.09,11-.17,22-.33,33-.5.4,0,1.18.04,2,.5.45.26.78.56.99.8h0c.05,1.62-1.22,2.98-2.84,3.04Z" fill="#717072" stroke="#58595b" stroke-miterlimit="10"/><path d="M177.44,90.39c-4,.1-8,.2-12,.3.18-.11,1-.65,1-1.5,0-.15-.03-.89-1-1.5,4,.1,8,.2,12,.3.58.11,1,.61,1,1.2s-.42,1.09-1,1.2Z" fill="#f1f2f2" stroke-width="0"/><path d="M143.36,87.59l-2.92.11c-.18.16-.89.85-1,2-.1,1.03.36,1.78.5,2,1.04.09,2.08.18,3.12.27-.75-.5-1.18-1.37-1.12-2.27.06-.91.6-1.71,1.42-2.11Z" fill="#f1f2f2" stroke-width="0"/><path d="M139.94,87.19l-1.49.13c-.09.2-.45,1.07-.51,2.52-.05,1.3.18,2.24.25,2.52.53.11,1.06.22,1.59.33-.38-.63-.6-1.72-.57-2.85.03-1.14.31-2.15.72-2.65Z" fill="#58595b" stroke="#58595b" stroke-miterlimit="10"/><path d="M165.69,90.94c-.51.41-1.32.42-2.04.05.13-.51.24-1.2.22-2-.01-.6-.09-1.12-.18-1.55h2c.18.3.44.82.5,1.5.05.54.14,1.48-.5,2Z" fill="#58595b" stroke="#58595b" stroke-miterlimit="10"/><rect x="136.4" y="161.69" width="12.5" height="7.5" rx="3.75" ry="3.75" fill="#717072" stroke="#58595b" stroke-miterlimit="10"/><path d="M176.55,167.03c-11.05.22-22.1.44-33.15.67-1.75.18-3.06-1.2-2.99-2.41.07-1.13,1.37-2.29,2.99-2.09,11-.17,22-.33,33-.5.4,0,1.18.04,2,.5.45.26.78.56.99.8h0c.05,1.62-1.22,2.98-2.84,3.04Z" fill="#717072" stroke="#58595b" stroke-miterlimit="10"/><path d="M177.15,166.14c-4,.1-8,.2-12,.3.18-.11,1-.65,1-1.5,0-.15-.03-.89-1-1.5,4,.1,8,.2,12,.3.58.11,1,.61,1,1.2s-.42,1.09-1,1.2Z" fill="#f1f2f2" stroke-width="0"/><path d="M143.07,163.34l-2.92.11c-.18.16-.89.85-1,2-.1,1.03.36,1.78.5,2,1.04.09,2.08.18,3.12.27-.75-.5-1.18-1.37-1.12-2.27.06-.91.6-1.71,1.42-2.11Z" fill="#f1f2f2" stroke-width="0"/><path d="M139.65,162.94l-1.49.13c-.09.2-.45,1.07-.51,2.52-.05,1.3.18,2.24.25,2.52.53.11,1.06.22,1.59.33-.38-.63-.6-1.72-.57-2.85.03-1.14.31-2.15.72-2.65Z" fill="#58595b" stroke="#58595b" stroke-miterlimit="10"/><path d="M165.4,166.69c-.51.41-1.32.42-2.04.05.13-.51.24-1.2.22-2-.01-.6-.09-1.12-.18-1.55h2c.18.3.44.82.5,1.5.05.54.14,1.48-.5,2Z" fill="#58595b" stroke="#58595b" stroke-miterlimit="10"/><rect width="350" height="350" fill="none" stroke-width="0"/></svg>